:SAMPLES-PER-SECOND 24
:FULLY-SPECIFIED
:DEGREES
494
root  14.7623 40.3218 13.6296 11.5522 -41.6393 -6.68823
RightUpLeg  -6.15612 -4.66948 -11.5509
RightLeg  31.47 -6.16026 -4.2975
RightFoot  10.1526 -2.10315 11.4175
RightToes  -2.08645e-008 3.77894e-005 6.81332e-007
Spine  0.672088 -0.470814 -2.51386
Spine1  3.77143 -2.04826 7.85183
HEad  -23.7886 11.4688 8.74213
LeftShoulder1  5.96546 -11.4418 -33.913
LeftArm  -16.5761 17.9701 -26.9769
LeftForeArm  173.11 -57.314 -164.722
LeftHand  -0.433924 0.406042 10.1454
RightShoulder  3.80832 6.3507 32.7628
RightArm  1.82396 -9.81588 25.3686
RightForeArm  158.527 71.3352 149.773
RightHand  -0.763973 7.87983 -7.03208
LeftUpLeg  -14.9004 13.9984 7.49148
LeftLeg  16.8899 8.98252 3.36993
LeftFoot  -2.17247 1.08553 -13.329
LeftToes  1.24767e-006 1.47042e-008 1.32732e-009
495
root  14.2177 39.071 12.2529 10.8401 -45.8407 -5.65482
RightUpLeg  -2.9648 -1.91841 -11.5398
RightLeg  27.3704 -6.1483 -3.67277
RightFoot  -4.6494 -1.11273 17.9194
RightToes  -2.08645e-008 3.77894e-005 6.81332e-007
Spine  0.340118 0.351197 -4.28307
Spine1  4.34668 -1.20585 7.56337
HEad  -22.1878 11.077 7.95825
LeftShoulder1  5.42535 -10.7124 -32.1614
LeftArm  -26.1876 10.702 -20.135
LeftForeArm  171.324 -56.9189 -164.793
LeftHand  -0.391076 2.47583 15.3578
RightShoulder  3.59628 6.07072 31.674
RightArm  -7.44772 1.25005 25.8905
RightForeArm  152.5 72.5315 146.709
RightHand  -1.07261 7.07121 -10.3073
LeftUpLeg  -19.3706 14.3377 8.23893
LeftLeg  26.3886 12.0551 6.75939
LeftFoot  -7.19228 0.558737 -14.2628
LeftToes  1.24767e-006 1.47042e-008 1.32732e-009
496
root  13.687 37.9991 10.8042 9.35181 -50.1735 -4.57309
RightUpLeg  -2.22401 2.70496 -10.4389
RightLeg  26.8235 -6.85773 -3.98334
RightFoot  -16.8896 0.69389 17.3036
RightToes  -2.08645e-008 3.77894e-005 6.81332e-007
Spine  0.209495 1.12907 -4.70998
Spine1  6.05492 -0.0156179 4.93275
HEad  -20.9108 10.7063 7.64434
LeftShoulder1  4.66443 -9.65052 -29.4271
LeftArm  -37.8741 2.20071 -13.2736
LeftForeArm  168.084 -57.7308 -164.058
LeftHand  -0.281035 3.68145 18.5622
RightShoulder  3.36965 5.78933 30.3598
RightArm  -17.2617 13.4178 27.4447
RightForeArm  149.079 73.5578 144.021
RightHand  -1.27293 6.44418 -12.7575
LeftUpLeg  -22.5857 14.6516 9.823
LeftLeg  35.1204 13.8155 10.588
LeftFoot  -8.75074 0.437366 -16.8873
LeftToes  1.24767e-006 1.47042e-008 1.32732e-009
497
root  13.2137 37.5728 9.66299 7.95557 -52.4814 -4.35999
RightUpLeg  -2.87525 6.52048 -8.22242
RightLeg  29.8609 -9.03758 -5.81117
RightFoot  -21.0846 1.04915 13.9197
RightToes  -2.08645e-008 3.77894e-005 6.81332e-007
Spine  0.608368 1.12559 -3.61723
Spine1  6.99494 0.283215 3.4263
HEad  -18.8469 9.93936 7.5528
LeftShoulder1  4.24795 -9.06267 -27.7429
LeftArm  -48.1597 -4.51193 -8.01189
LeftForeArm  167.752 -57.9373 -163.912
LeftHand  -0.222267 4.16532 20.3886
RightShoulder  3.12393 5.53524 28.624
RightArm  -24.5189 23.9263 29.0785
RightForeArm  149.922 73.4007 144.52
RightHand  -1.48421 6.61281 -14.5983
LeftUpLeg  -23.6367 12.2743 12.3667
LeftLeg  40.303 15.2783 13.8391
LeftFoot  -5.91637 0.993279 -19.9484
LeftToes  1.24767e-006 1.47042e-008 1.32732e-009
498
root  12.6742 37.7903 8.98284 5.99634 -51.4293 -3.88144
RightUpLeg  -1.33887 6.32878 -6.56943
RightLeg  30.7905 -9.67547 -6.40597
RightFoot  -20.7985 0.982233 13.5305
RightToes  -2.08645e-008 3.77894e-005 6.81332e-007
Spine  0.321243 0.158229 -3.28359
Spine1  7.14764 -0.924083 4.70684
HEad  -13.0497 7.93808 7.38779
LeftShoulder1  4.27981 -9.21188 -27.5902
LeftArm  -52.4906 -10.9076 -5.49163
LeftForeArm  171.206 -56.7049 -164.902
LeftHand  -0.0148969 5.33879 22.4446
RightShoulder  2.79587 5.14464 26.3128
RightArm  -28.5711 30.6585 29.9259
RightForeArm  153.777 71.7175 148.415
RightHand  -1.65414 6.96791 -15.7697
LeftUpLeg  -22.3144 6.8985 14.1859
LeftLeg  40.3028 17.1271 15.3365
LeftFoot  -1.42942 1.87292 -21.2848
LeftToes  1.24767e-006 1.47042e-008 1.32732e-009
499
root  12.0217 38.4587 8.68136 3.81445 -49.3642 -2.77576
RightUpLeg  1.52851 3.31271 -6.38015
RightLeg  28.8823 -8.48576 -5.27207
RightFoot  -17.9224 0.666425 13.6295
RightToes  -2.08645e-008 3.77894e-005 6.81332e-007
Spine  -1.61221 -0.857063 -3.74032
Spine1  7.04631 -2.19426 6.48409
HEad  -2.94732 5.318 7.40726
LeftShoulder1  4.27472 -9.30179 -27.3044
LeftArm  -51.584 -19.0171 -5.98125
LeftForeArm  176.071 -55.3265 -166.017
LeftHand  0.219228 6.51909 22.9748
RightShoulder  2.45439 4.53661 24.4296
RightArm  -30.3383 34.7438 29.3024
RightForeArm  158.758 69.1296 153.076
RightHand  -1.73351 6.72131 -16.8244
LeftUpLeg  -18.8342 2.74893 14.4326
LeftLeg  35.342 19.9916 14.9212
LeftFoot  3.3236 2.53496 -19.726
LeftToes  1.24767e-006 1.47042e-008 1.32732e-009
500
root  11.3488 39.2502 8.54076 2.24731 -48.7885 -1.4313
RightUpLeg  3.12157 1.05092 -7.00666
RightLeg  27.0775 -6.93829 -4.06635
RightFoot  -13.4685 0.156891 13.3706
RightToes  -2.08645e-008 3.77894e-005 6.81332e-007
Spine  -4.29822 -1.27305 -4.31701
Spine1  6.42642 -2.62728 7.50355
HEad  7.68525 3.23652 7.1345
LeftShoulder1  4.11196 -9.09257 -26.5426
LeftArm  -49.7576 -27.0131 -6.96327
LeftForeArm  179.126 -54.9302 -166.452
LeftHand  0.2371 6.62172 22.7499
RightShoulder  2.16243 3.92733 22.9236
RightArm  -30.5593 38.6342 28.4542
RightForeArm  162.473 66.7735 156.36
RightHand  -1.83121 5.77805 -19.1765
LeftUpLeg  -14.9732 3.35859 13.9865
LeftLeg  28.5504 22.1111 12.8237
LeftFoot  8.96651 2.89862 -16.4324
LeftToes  1.24767e-006 1.47042e-008 1.32732e-009
501
root  10.7646 39.8613 8.37745 0.564697 -49.1563 0.162567
RightUpLeg  3.98079 0.647914 -7.6521
RightLeg  26.1981 -6.12716 -3.49864
RightFoot  -10.0327 -0.225711 13.6432
RightToes  -2.08645e-008 3.77894e-005 6.81332e-007
Spine  -5.99483 -1.46064 -5.03203
Spine1  5.82435 -2.80179 8.26402
HEad  14.5281 1.85131 6.15746
LeftShoulder1  3.90338 -8.79281 -25.6104
LeftArm  -50.2642 -33.331 -5.49028
LeftForeArm  179.854 -55.3305 -166.311
LeftHand  0.356003 7.07169 24.5633
RightShoulder  1.9575 3.60882 21.2441
RightArm  -30.8932 43.2104 28.2461
RightForeArm  164.49 65.4452 157.938
RightHand  -1.94735 4.9132 -21.9722
LeftUpLeg  -12.3125 6.87853 13.7802
LeftLeg  23.7268 20.7668 9.9983
LeftFoot  14.5913 3.18997 -14.1916
LeftToes  1.24767e-006 1.47042e-008 1.32732e-009
502
root  10.311 40.1281 8.15869 -1.7439 -49.391 1.93372
RightUpLeg  5.37753 0.666569 -8.27318
RightLeg  25.6718 -5.85212 -3.28356
RightFoot  -9.11085 -0.324793 13.4317
RightToes  -2.08645e-008 3.77894e-005 6.81332e-007
Spine  -6.3079 -1.70158 -5.3368
Spine1  6.21513 -2.90265 7.93977
HEad  17.047 0.847832 5.55496
LeftShoulder1  3.47251 -8.12963 -23.62
LeftArm  -53.266 -38.5441 -2.82197
LeftForeArm  -179.722 -56.1651 -165.924
LeftHand  0.624081 8.0712 26.6689
RightShoulder  1.84451 3.50112 19.9675
RightArm  -32.2497 47.6772 27.9202
RightForeArm  166.577 65.1403 158.454
RightHand  -2.04022 4.71026 -23.4193
LeftUpLeg  -10.9716 9.38169 13.9174
LeftLeg  22.3669 17.1982 7.92964
LeftFoot  18.6864 3.51112 -13.4756
LeftToes  1.24767e-006 1.47042e-008 1.32732e-009
503
root  9.9827 40.014 7.95187 -3.80029 -49.7577 3.31339
RightUpLeg  6.8754 0.802625 -8.72873
RightLeg  25.4707 -5.5796 -3.11717
RightFoot  -10.5698 -0.157596 12.559
RightToes  -2.08645e-008 3.77894e-005 6.81332e-007
Spine  -5.53276 -1.69507 -4.66169
Spine1  6.5789 -2.60847 6.51383
HEad  17.2228 0.197393 5.71575
LeftShoulder1  3.01672 -7.35925 -21.4231
LeftArm  -56.8505 -42.6384 -0.765916
LeftForeArm  -178.776 -57.3697 -165.361
LeftHand  0.670006 8.27375 26.6149
RightShoulder  1.75999 3.3968 19.0757
RightArm  -33.1473 51.006 27.5382
RightForeArm  168.174 65.5267 158.264
RightHand  -2.13377 4.71147 -24.4468
LeftUpLeg  -10.7244 9.87954 14.4055
LeftLeg  24.0062 14.1562 7.11287
LeftFoot  20.5064 3.63429 -13.1379
LeftToes  1.24767e-006 1.47042e-008 1.32732e-009
504
root  9.72191 39.6146 7.80558 -5.14136 -50.4187 3.9614
RightUpLeg  8.40342 1.87723 -8.53752
RightLeg  25.3007 -5.71555 -3.16488
RightFoot  -13.8171 0.156554 11.6074
RightToes  -2.08645e-008 3.77894e-005 6.81332e-007
Spine  -4.13752 -1.34435 -3.43541
Spine1  6.33036 -2.03038 5.2087
HEad  16.3187 -0.162324 6.19582
LeftShoulder1  2.89303 -7.19175 -20.6484
LeftArm  -59.1395 -45.457 1.27244
LeftForeArm  -177.717 -58.6752 -164.714
LeftHand  0.559781 7.88583 25.797
RightShoulder  1.71522 3.42623 18.2597
RightArm  -33.2925 52.7464 26.9044
RightForeArm  167.912 66.2544 157.521
RightHand  -2.22318 4.41212 -26.1675
LeftUpLeg  -11.2743 9.64507 15.3898
LeftLeg  27.7547 11.8925 7.03281
LeftFoot  19.4423 4.02019 -15.0023
LeftToes  1.24767e-006 1.47042e-008 1.32732e-009
